<?xml version="1.0" standalone="no"?>
<!DOCTYPE svg PUBLIC "-//W3C//DTD SVG 20010904//EN"
 "http://www.w3.org/TR/2001/REC-SVG-20010904/DTD/svg10.dtd">
<svg version="1.0" xmlns="http://www.w3.org/2000/svg"
 width="260.000000pt" height="260.000000pt" viewBox="0 0 260.000000 260.000000"
 preserveAspectRatio="xMidYMid meet">
<metadata>
Created by potrace 1.14, written by Peter Selinger 2001-2017
</metadata>
<g transform="translate(0.000000,260.000000) scale(0.100000,-0.100000)"
fill="#000000" stroke="none">
<path d="M350 2505 c11 -13 2 -15 -62 -17 -24 -1 -35 -5 -31 -12 4 -6 -2 -4
-12 4 -11 9 -16 10 -11 3 4 -8 2 -13 -4 -13 -7 0 -9 -7 -6 -16 5 -14 4 -15 -8
-5 -11 9 -15 8 -20 -5 -4 -10 -12 -14 -22 -10 -11 4 -15 2 -11 -8 3 -8 -2 -16
-14 -19 -18 -5 -19 -8 -8 -29 12 -22 11 -22 -6 -8 -17 14 -18 13 -13 -8 4 -12
2 -20 -3 -16 -11 6 -7 -24 5 -46 7 -12 6 -13 -5 -2 -25 23 -30 12 -8 -20 l23
-33 -29 25 -28 25 17 -27 c13 -20 14 -28 5 -34 -7 -4 -9 -3 -5 4 3 6 3 13 -1
15 -5 3 -8 -48 -8 -113 0 -82 3 -116 11 -113 6 2 17 -4 25 -14 12 -16 12 -17
-2 -6 -16 13 -29 8 -29 -9 0 -5 4 -7 9 -3 5 3 13 0 17 -6 4 -8 3 -9 -4 -5 -7
4 -12 2 -12 -3 0 -6 6 -11 13 -11 8 0 7 -4 -3 -11 -12 -8 -12 -10 5 -8 34 2
38 0 24 -18 -8 -9 -9 -14 -3 -10 7 4 17 0 24 -8 11 -13 10 -14 -6 -8 -16 6
-17 4 -7 -9 7 -8 10 -18 7 -21 -3 -3 -2 -11 2 -18 14 -23 11 -57 -5 -51 -9 3
-12 1 -7 -6 5 -8 -1 -12 -15 -12 -18 0 -19 -2 -9 -15 10 -12 10 -18 0 -30 -6
-8 -9 -19 -5 -25 3 -5 2 -10 -3 -10 -5 0 -13 9 -18 21 -6 14 -9 -12 -9 -84 0
-72 3 -103 11 -100 6 2 17 -4 25 -14 13 -17 13 -17 -5 -3 -18 14 -19 13 -13
-2 3 -10 1 -20 -5 -24 -6 -4 -8 -3 -4 4 3 6 3 13 -1 15 -5 3 -8 -41 -8 -98 0
-57 3 -101 7 -99 4 2 5 13 3 24 -2 11 1 20 7 20 5 0 8 -7 4 -15 -3 -8 0 -15 7
-15 8 0 6 -4 -3 -10 -13 -8 -12 -11 5 -25 20 -16 20 -16 -2 -6 -12 6 -23 11
-25 11 -2 0 -3 -56 -3 -124 0 -86 3 -122 11 -119 6 2 17 -4 25 -14 13 -17 13
-17 -5 -3 -18 14 -19 13 -13 -2 3 -10 1 -20 -5 -24 -6 -4 -8 -3 -4 4 3 6 3 13
-1 15 -5 3 -8 -41 -8 -98 0 -57 3 -101 7 -99 4 2 5 13 3 24 -2 11 1 20 7 20 5
0 8 -7 4 -15 -3 -8 0 -15 7 -15 8 0 6 -4 -3 -10 -13 -8 -12 -11 5 -25 20 -16
20 -16 -2 -6 -12 6 -23 11 -25 11 -2 0 -3 -56 -3 -124 0 -86 3 -122 11 -119 6
2 17 -4 25 -14 13 -17 13 -17 -5 -3 -18 14 -19 13 -13 -2 3 -10 1 -20 -5 -24
-6 -4 -8 -3 -4 4 3 6 3 13 -1 15 -5 3 -8 -41 -8 -98 0 -57 3 -101 7 -99 4 2 5
13 3 24 -2 11 1 20 7 20 5 0 8 -6 5 -14 -3 -8 -1 -17 6 -20 9 -3 9 -5 0 -5 -7
-1 -13 -6 -13 -12 0 -5 5 -7 12 -3 7 4 8 3 4 -4 -4 -6 -13 -9 -21 -6 -15 6
-15 -20 0 -33 4 -4 5 -2 1 5 -4 7 -2 12 6 12 8 0 13 -12 12 -32 -1 -18 4 -39
10 -47 9 -12 8 -13 -3 -6 -10 6 -12 4 -7 -4 5 -7 15 -10 23 -6 13 4 14 3 3
-10 -10 -12 -10 -15 4 -15 9 0 16 -8 16 -20 0 -11 5 -20 11 -20 5 0 7 5 4 10
-3 6 -1 10 5 10 7 0 9 -8 5 -20 -5 -16 -2 -20 15 -20 12 0 19 -4 16 -9 -9 -15
40 -31 54 -18 10 9 11 9 6 0 -4 -8 7 -13 36 -15 24 -2 42 -8 41 -14 -1 -6 5
-11 12 -11 11 0 12 4 4 13 -7 8 -6 14 2 20 7 4 9 3 6 -3 -4 -6 5 -15 19 -22
14 -6 23 -7 20 -2 -3 5 1 14 9 21 13 11 14 10 9 -5 -5 -12 -4 -16 3 -12 6 4
13 4 16 0 2 -5 2 -2 1 4 -5 18 6 16 23 -4 14 -17 14 -17 9 0 -4 12 -2 17 6 14
7 -2 12 -11 10 -18 -3 -10 0 -11 8 -3 7 7 24 9 46 4 36 -8 37 -7 35 25 -1 16
2 15 14 -7 19 -34 28 -36 21 -5 -3 12 -3 16 0 9 3 -6 11 -9 16 -6 6 4 8 2 4
-4 -3 -6 -1 -14 5 -18 7 -4 9 -3 6 3 -4 6 3 19 16 29 12 10 16 12 9 4 -14 -16
-16 -34 -3 -26 5 4 11 3 14 -1 2 -5 2 -2 1 4 -5 18 6 16 23 -4 14 -17 14 -17
9 0 -4 12 -2 17 6 14 7 -2 12 -10 10 -16 -1 -8 2 -9 10 -5 18 12 52 11 61 -1
5 -6 7 -4 4 5 -2 8 -13 14 -23 12 -15 -2 -16 -1 -5 7 15 10 41 4 41 -9 0 -4 7
-11 16 -14 14 -5 15 -4 5 8 -9 11 -9 16 0 22 7 4 9 3 6 -3 -4 -6 5 -15 19 -22
14 -6 23 -7 20 -2 -3 5 1 14 9 21 13 11 14 10 9 -5 -5 -12 -4 -16 3 -12 6 4
13 4 16 0 2 -5 2 -2 1 5 -5 17 6 15 23 -6 14 -16 14 -16 9 1 -4 12 -2 17 6 14
7 -2 12 -11 10 -18 -3 -10 0 -11 8 -3 7 7 24 9 46 4 36 -8 37 -7 35 25 -1 16
2 15 14 -7 19 -34 28 -36 21 -5 -3 12 -3 16 0 9 3 -6 11 -9 16 -6 6 4 8 2 4
-4 -3 -6 -1 -14 5 -18 7 -4 9 -3 6 3 -4 6 3 19 16 29 12 10 16 12 10 4 -15
-16 -17 -34 -4 -26 5 4 11 3 14 -1 2 -5 2 -2 1 5 -5 17 6 15 23 -6 14 -16 14
-16 9 1 -4 12 -2 17 6 14 7 -2 12 -10 10 -16 -1 -8 2 -9 10 -5 18 12 52 11 61
-1 5 -6 7 -4 4 5 -2 8 -13 14 -23 12 -15 -2 -16 -1 -5 7 15 10 41 4 41 -9 0
-4 7 -11 16 -14 14 -5 15 -4 5 8 -9 11 -9 16 0 22 7 4 9 3 6 -3 -4 -6 5 -15
19 -22 14 -6 23 -7 20 -2 -3 5 1 14 9 21 13 11 14 10 9 -5 -5 -12 -4 -16 3
-12 6 4 13 4 16 0 2 -5 2 -2 1 5 -5 17 6 15 23 -5 14 -17 14 -17 9 0 -4 12 -2
17 6 14 7 -2 12 -11 10 -18 -3 -10 0 -11 8 -3 7 7 24 9 46 4 36 -8 37 -7 35
25 -1 16 2 15 14 -7 19 -34 28 -36 21 -5 -3 12 -3 16 0 9 3 -6 11 -9 16 -6 6
4 8 2 4 -4 -3 -6 -1 -14 5 -18 7 -4 9 -3 6 3 -4 6 3 19 16 29 12 10 16 12 10
4 -15 -16 -17 -34 -4 -26 5 4 11 3 14 -1 2 -5 2 -2 1 5 -5 17 6 15 23 -6 14
-16 14 -16 9 1 -4 12 -2 17 6 14 7 -2 12 -10 10 -16 -1 -8 2 -9 10 -5 18 12
52 11 61 -1 5 -6 7 -4 4 5 -2 8 -13 14 -23 12 -15 -2 -16 -1 -5 7 15 10 41 4
41 -9 0 -4 7 -11 16 -14 14 -5 15 -4 5 8 -9 11 -9 16 0 22 7 4 9 3 6 -3 -4 -6
5 -15 19 -22 14 -6 23 -7 20 -2 -3 5 1 14 9 21 13 11 14 10 9 -5 -5 -12 -4
-16 3 -12 6 4 13 4 16 0 2 -5 2 -2 1 4 -5 18 6 16 23 -5 14 -16 14 -16 9 1 -4
12 -2 17 6 14 7 -2 12 -11 10 -18 -3 -10 0 -11 8 -3 7 7 24 9 46 4 36 -8 37
-7 35 25 -1 16 2 15 14 -7 19 -34 28 -36 21 -5 -3 12 -3 16 0 9 3 -6 11 -9 16
-6 6 4 8 2 4 -4 -3 -6 -1 -14 5 -18 7 -4 9 -3 6 3 -4 6 3 19 16 29 12 10 16
12 10 4 -15 -16 -17 -34 -4 -26 5 4 11 3 14 -1 2 -5 2 -2 1 5 -5 17 6 15 23
-6 14 -16 14 -16 9 1 -4 12 -2 17 6 14 7 -2 12 -10 10 -17 -2 -9 1 -10 10 -4
7 5 36 9 65 9 38 -1 49 2 40 9 -7 6 -10 10 -8 9 2 -2 11 3 19 10 13 9 14 9 8
-1 -8 -14 28 -12 41 3 5 4 2 5 -6 0 -10 -6 -12 -4 -7 4 6 9 11 9 24 -1 9 -7
13 -8 9 -2 -12 20 30 63 55 57 19 -4 20 -3 8 6 -13 9 -13 11 3 11 9 0 17 5 17
11 0 5 5 7 12 3 7 -5 8 -3 3 5 -5 9 -10 10 -18 2 -6 -6 -16 -11 -21 -11 -6 0
3 9 19 20 17 11 26 20 20 20 -5 0 -4 4 4 9 11 7 11 13 0 32 -11 21 -10 22 2
12 10 -8 19 -9 29 -1 13 8 12 9 -2 5 -10 -4 -18 1 -21 13 -4 14 0 18 16 14 20
-3 20 -3 -1 17 -25 22 -30 38 -7 19 13 -11 14 -10 9 5 -6 14 -4 16 6 10 9 -5
11 -4 6 4 -11 17 -15 82 -6 76 5 -3 7 5 4 17 -14 66 -15 70 -3 62 8 -4 9 -3 5
5 -11 17 -15 82 -6 76 5 -3 7 5 4 17 -14 66 -15 70 -3 62 8 -4 9 -3 5 5 -11
17 -15 82 -6 76 5 -3 7 5 4 17 -14 66 -15 70 -3 62 8 -4 9 -3 5 5 -11 17 -15
82 -6 76 5 -3 7 5 4 17 -14 66 -15 70 -3 62 8 -4 9 -3 5 5 -11 17 -15 82 -6
76 5 -3 7 5 4 17 -14 66 -15 70 -3 62 8 -4 9 -3 5 5 -11 17 -15 82 -6 76 5 -3
7 5 4 17 -14 66 -15 70 -3 62 8 -4 9 -3 5 5 -11 17 -15 82 -6 76 5 -3 7 5 4
17 -14 66 -15 70 -3 62 8 -4 9 -3 5 5 -11 17 -15 82 -6 76 5 -3 7 5 4 17 -14
66 -15 70 -3 62 8 -4 9 -3 5 5 -11 17 -15 82 -6 76 5 -3 7 5 4 17 -14 66 -15
70 -3 62 8 -4 9 -3 5 5 -11 17 -15 82 -6 76 5 -3 7 5 4 17 -14 66 -15 70 -3
62 8 -4 9 -3 5 5 -11 17 -15 82 -6 76 5 -3 7 5 4 17 -14 66 -15 70 -3 62 8 -4
9 -3 5 5 -13 21 -15 82 -3 74 7 -4 7 0 -1 9 -9 11 -10 18 -2 23 12 8 4 25 -13
25 -8 0 -8 -3 2 -9 9 -6 10 -11 2 -15 -6 -4 -9 -12 -6 -17 3 -5 -1 -6 -10 -2
-9 3 -12 9 -7 12 13 8 11 41 -2 41 -6 0 -4 5 4 10 13 8 13 11 1 19 -11 7 -10
10 5 14 18 4 18 5 -1 6 -17 1 -18 3 -5 11 11 7 11 10 2 10 -8 0 -10 5 -6 13 5
8 2 7 -9 -2 -15 -12 -17 -12 -12 1 4 9 -1 22 -9 31 -12 12 -13 17 -3 20 6 3 3
6 -8 6 -11 1 -27 6 -35 12 -13 9 -12 10 3 5 11 -4 16 -2 11 5 -3 6 -15 9 -25
6 -21 -6 -24 3 -9 21 7 9 7 9 -2 2 -15 -13 -31 -13 -24 -1 4 5 -5 8 -20 6 -17
-2 -24 2 -20 11 3 8 0 11 -9 8 -8 -3 -11 -12 -7 -22 5 -14 4 -15 -10 -2 -12
11 -13 19 -5 30 9 12 9 13 -3 3 -16 -15 -34 -17 -26 -4 4 5 0 8 -6 7 -15 -2
-23 -21 -9 -21 5 0 13 -3 17 -7 3 -4 -4 -5 -16 -3 -12 2 -25 7 -28 10 -3 2
-12 -1 -20 -8 -13 -9 -14 -9 -8 1 4 6 3 12 -3 12 -5 0 -12 -5 -14 -10 -3 -6
-4 -5 -3 2 2 7 10 13 19 13 8 0 18 3 22 6 8 8 -26 4 -47 -5 -10 -5 -15 -12
-12 -17 3 -5 -3 -6 -12 -2 -13 5 -15 3 -9 -8 8 -12 6 -12 -8 0 -14 11 -20 11
-34 0 -16 -13 -17 -12 -4 4 13 16 2 25 -13 10 -11 -11 -37 -12 -30 -1 4 7 -2
7 -17 3 -13 -4 -27 -13 -31 -19 -4 -6 -6 -1 -5 11 0 12 5 19 9 17 4 -3 15 -1
24 4 12 7 6 9 -22 7 -38 -1 -53 -10 -38 -23 4 -4 4 -1 -1 7 -5 9 -4 12 3 7 6
-4 9 -13 6 -21 -5 -13 -8 -12 -21 0 -8 9 -18 13 -23 10 -4 -3 -10 1 -13 8 -6
15 -42 16 -54 2 -5 -4 -3 -5 4 -1 6 3 14 3 17 -2 3 -5 0 -9 -7 -10 -7 0 -28
-3 -47 -6 -27 -4 -31 -3 -17 5 9 6 21 8 25 5 5 -3 9 1 9 8 0 7 -6 13 -14 13
-7 0 -13 -5 -13 -10 0 -6 -3 -7 -7 -4 -3 4 -13 1 -21 -6 -13 -10 -15 -9 -10 5
6 15 4 16 -31 9 -2 -1 3 -8 10 -18 13 -15 12 -15 -7 -5 -16 8 -24 8 -34 -1
-10 -9 -11 -9 -6 1 4 6 3 12 -3 12 -5 0 -12 -5 -14 -10 -3 -6 -4 -5 -3 2 2 7
10 13 19 13 8 0 18 3 22 6 8 8 -26 4 -47 -5 -10 -5 -15 -12 -12 -17 3 -5 -3
-6 -12 -2 -13 5 -15 3 -9 -8 8 -12 6 -12 -8 0 -14 11 -20 11 -34 0 -16 -13
-17 -12 -4 4 13 16 2 25 -13 10 -11 -11 -37 -12 -30 -1 4 7 -2 7 -17 3 -13 -4
-27 -13 -31 -19 -4 -6 -6 -1 -5 11 0 12 5 19 9 17 4 -3 15 -1 24 4 12 7 4 9
-27 7 -42 -2 -50 -8 -33 -23 4 -4 4 -1 -1 7 -5 9 -4 12 3 7 6 -4 9 -13 6 -21
-5 -13 -8 -12 -21 0 -8 9 -18 13 -23 10 -4 -3 -10 1 -13 8 -6 15 -42 16 -54 2
-5 -4 -3 -5 4 -1 6 3 14 3 17 -2 3 -5 0 -9 -7 -10 -7 0 -28 -3 -47 -6 -27 -4
-31 -3 -17 5 9 6 21 8 25 5 5 -3 9 1 9 8 0 7 -6 13 -14 13 -7 0 -13 -5 -13
-10 0 -6 -3 -7 -7 -4 -3 4 -13 1 -21 -6 -13 -10 -15 -9 -10 5 6 15 4 16 -31 9
-2 -1 3 -8 10 -18 13 -15 12 -15 -7 -5 -16 8 -24 8 -34 -1 -10 -9 -11 -9 -6 1
4 6 3 12 -3 12 -5 0 -12 -5 -14 -10 -3 -6 -4 -5 -3 2 2 7 10 13 19 13 8 0 18
3 22 6 8 8 -26 4 -47 -5 -10 -5 -15 -12 -12 -17 3 -5 -3 -6 -12 -2 -13 5 -15
3 -9 -8 8 -12 6 -12 -8 0 -14 11 -20 11 -34 0 -16 -13 -17 -12 -4 4 13 16 2
25 -13 10 -11 -11 -37 -12 -30 -1 4 7 -2 7 -17 3 -13 -4 -27 -13 -31 -19 -4
-6 -6 -1 -5 11 0 12 5 19 9 17 4 -3 15 -1 24 4 12 7 4 9 -27 7 -42 -2 -50 -8
-33 -23 4 -4 4 -1 -1 7 -5 9 -4 12 3 7 6 -4 9 -13 6 -21 -5 -13 -8 -12 -21 0
-8 9 -18 13 -23 10 -4 -3 -10 1 -13 8 -6 15 -42 16 -54 2 -5 -4 -3 -5 4 -1 6
3 14 3 17 -2 3 -5 0 -9 -7 -10 -7 0 -28 -3 -47 -6 -27 -4 -31 -3 -17 5 9 6 21
8 25 5 5 -3 9 1 9 8 0 7 -6 13 -14 13 -7 0 -13 -5 -13 -10 0 -6 -3 -7 -7 -4
-3 4 -13 1 -21 -6 -13 -10 -15 -9 -10 5 6 15 4 16 -31 9 -2 -1 3 -8 10 -18 13
-15 12 -15 -7 -5 -16 8 -24 8 -34 -1 -10 -9 -11 -9 -6 1 4 6 3 12 -3 12 -5 0
-12 -5 -14 -10 -3 -6 -4 -5 -3 2 2 7 10 13 19 13 8 0 18 3 22 6 8 8 -26 4 -47
-5 -10 -5 -15 -12 -12 -17 3 -5 -3 -6 -12 -2 -13 5 -15 3 -9 -8 8 -12 6 -12
-8 0 -14 11 -20 11 -34 0 -16 -13 -17 -12 -4 4 13 16 2 25 -13 10 -11 -11 -37
-12 -30 -1 4 7 -2 7 -17 3 -13 -4 -27 -13 -31 -19 -4 -6 -6 -1 -5 11 0 12 5
19 9 17 4 -3 15 -1 24 4 12 7 5 9 -25 7 -37 -2 -50 -11 -34 -25 4 -3 3 1 -2 9
-5 9 -4 12 3 7 6 -4 9 -13 6 -21 -5 -11 -9 -11 -24 3 -11 8 -17 19 -15 22 2 4
-2 7 -10 7 -10 0 -12 -4 -5 -12 7 -9 5 -17 -7 -26 -17 -13 -17 -13 -3 5 14 17
13 18 -7 12 -12 -4 -24 -2 -28 3 -4 7 1 8 12 4 10 -3 15 -3 12 1 -4 4 -16 8
-28 11 -18 3 -20 1 -11 -16 13 -24 7 -24 -16 -2 -19 20 -60 27 -44 8z m27 -17
c-3 -8 -6 -5 -6 6 -1 11 2 17 5 13 3 -3 4 -12 1 -19z m560 0 c-3 -8 -6 -5 -6
6 -1 11 2 17 5 13 3 -3 4 -12 1 -19z m480 0 c-3 -8 -6 -5 -6 6 -1 11 2 17 5
13 3 -3 4 -12 1 -19z m480 0 c-3 -8 -6 -5 -6 6 -1 11 2 17 5 13 3 -3 4 -12 1
-19z m-1787 -282 c-5 -14 -5 -27 1 -33 6 -6 5 -14 -4 -21 -11 -10 -14 -5 -13
26 1 20 6 40 11 44 15 11 15 10 5 -16z m2384 -16 c-6 -6 -10 -3 -10 10 0 13 4
16 10 10 7 -7 7 -13 0 -20z m-5 -62 c-1 -1 3 -13 9 -25 8 -14 9 -24 2 -28 -5
-3 -10 2 -11 12 0 10 -2 26 -4 36 -2 11 -1 17 2 14 2 -3 4 -7 2 -9z m-2373
-10 c-1 -7 -5 -18 -9 -25 -4 -7 0 -16 10 -22 16 -9 16 -10 -2 -8 -16 1 -21 8
-21 34 0 19 5 33 12 33 7 0 11 -6 10 -12z m2378 -88 c-6 -6 -10 -3 -10 10 0
13 4 16 10 10 7 -7 7 -13 0 -20z m-5 -62 c-1 -1 3 -13 9 -25 8 -14 9 -24 2
-28 -5 -3 -10 2 -11 12 0 10 -2 26 -4 36 -2 11 -1 17 2 14 2 -3 4 -7 2 -9z m5
-98 c-6 -6 -10 -3 -10 10 0 13 4 16 10 10 7 -7 7 -13 0 -20z m-5 -62 c-1 -1 3
-13 9 -25 8 -14 9 -24 2 -28 -5 -3 -10 2 -11 12 0 10 -2 26 -4 36 -2 11 -1 17
2 14 2 -3 4 -7 2 -9z m5 -98 c-6 -6 -10 -3 -10 10 0 13 4 16 10 10 7 -7 7 -13
0 -20z m-2385 -14 c8 -10 8 -16 -2 -24 -10 -9 -13 -6 -13 13 0 29 0 29 15 11z
m2380 -48 c-1 -1 3 -13 9 -25 8 -14 9 -24 2 -28 -5 -3 -10 2 -11 12 0 10 -2
26 -4 36 -2 11 -1 17 2 14 2 -3 4 -7 2 -9z m-2373 -10 c-1 -7 -5 -18 -9 -25
-4 -7 0 -16 10 -22 16 -9 16 -10 -2 -8 -16 1 -21 8 -21 34 0 19 5 33 12 33 7
0 11 -6 10 -12z m2378 -88 c-6 -6 -10 -3 -10 10 0 13 4 16 10 10 7 -7 7 -13 0
-20z m-2377 -65 c0 -8 -5 -15 -11 -15 -6 0 -5 -5 2 -12 8 -8 8 -15 1 -24 -7
-8 -7 -14 0 -18 11 -7 4 -36 -8 -36 -11 0 -7 104 4 112 5 4 10 8 11 8 0 0 1
-7 1 -15z m2372 3 c-1 -1 3 -13 9 -25 8 -14 9 -24 2 -28 -5 -3 -10 2 -11 12 0
10 -2 26 -4 36 -2 11 -1 17 2 14 2 -3 4 -7 2 -9z m5 -98 c-6 -6 -10 -3 -10 10
0 13 4 16 10 10 7 -7 7 -13 0 -20z m-5 -62 c-1 -1 3 -13 9 -25 8 -14 9 -24 2
-28 -5 -3 -10 2 -11 12 0 10 -2 26 -4 36 -2 11 -1 17 2 14 2 -3 4 -7 2 -9z
m-2379 -53 c0 -8 -4 -15 -8 -15 -5 0 -9 7 -9 15 0 8 4 15 9 15 4 0 8 -7 8 -15z
m2384 -45 c-6 -6 -10 -3 -10 10 0 13 4 16 10 10 7 -7 7 -13 0 -20z m-2387 6
c-3 -7 -1 -18 4 -23 6 -6 5 -14 -3 -21 -11 -9 -14 -4 -14 24 0 18 4 34 9 34 5
0 7 -6 4 -14z m2382 -68 c-1 -1 3 -13 9 -25 8 -14 9 -24 2 -28 -5 -3 -10 2
-11 12 0 10 -2 26 -4 36 -2 11 -1 17 2 14 2 -3 4 -7 2 -9z m-2373 -10 c-1 -7
-5 -18 -9 -25 -4 -7 0 -16 10 -22 16 -9 16 -10 -2 -8 -16 1 -21 8 -21 34 0 19
5 33 12 33 7 0 11 -6 10 -12z m2378 -88 c-6 -6 -10 -3 -10 10 0 13 4 16 10 10
7 -7 7 -13 0 -20z m-2377 -65 c0 -8 -5 -15 -11 -15 -6 0 -5 -5 2 -12 8 -8 8
-15 1 -24 -7 -8 -7 -14 0 -18 11 -7 4 -36 -8 -36 -11 0 -7 104 4 112 5 4 10 8
11 8 0 0 1 -7 1 -15z m2372 3 c-1 -1 3 -13 9 -25 8 -14 9 -24 2 -28 -5 -3 -10
2 -11 12 0 10 -2 26 -4 36 -2 11 -1 17 2 14 2 -3 4 -7 2 -9z m5 -98 c-6 -6
-10 -3 -10 10 0 13 4 16 10 10 7 -7 7 -13 0 -20z m-5 -62 c-1 -1 3 -13 9 -25
8 -14 9 -24 2 -28 -5 -3 -10 2 -11 12 0 10 -2 26 -4 36 -2 11 -1 17 2 14 2 -3
4 -7 2 -9z m-2379 -53 c0 -8 -4 -15 -8 -15 -5 0 -9 7 -9 15 0 8 4 15 9 15 4 0
8 -7 8 -15z m2384 -45 c-6 -6 -10 -3 -10 10 0 13 4 16 10 10 7 -7 7 -13 0 -20z
m-2387 6 c-3 -7 -1 -18 4 -23 6 -6 5 -14 -3 -21 -11 -9 -14 -4 -14 24 0 18 4
34 9 34 5 0 7 -6 4 -14z m2382 -68 c-1 -1 3 -13 9 -25 8 -14 9 -24 2 -28 -5
-3 -10 2 -11 12 0 10 -2 26 -4 36 -2 11 -1 17 2 14 2 -3 4 -7 2 -9z m-2373
-10 c-1 -7 -5 -18 -9 -25 -4 -7 0 -16 10 -22 16 -9 16 -10 -2 -8 -16 1 -21 8
-21 34 0 19 5 33 12 33 7 0 11 -6 10 -12z m2378 -88 c-6 -6 -10 -3 -10 10 0
13 4 16 10 10 7 -7 7 -13 0 -20z m-2377 -65 c0 -8 -5 -15 -11 -15 -6 0 -5 -5
2 -12 8 -8 8 -15 1 -24 -7 -8 -7 -14 0 -18 11 -7 4 -36 -8 -36 -11 0 -7 104 4
112 5 4 10 8 11 8 0 0 1 -7 1 -15z m2372 3 c-1 -1 3 -13 9 -25 8 -14 9 -24 2
-28 -5 -3 -10 2 -11 12 0 10 -2 26 -4 36 -2 11 -1 17 2 14 2 -3 4 -7 2 -9z m5
-98 c-6 -6 -10 -3 -10 10 0 13 4 16 10 10 7 -7 7 -13 0 -20z m-1959 -310 c-3
-5 -12 -10 -18 -10 -7 0 -6 4 3 10 19 12 23 12 15 0z m240 0 c-3 -5 -12 -10
-18 -10 -7 0 -6 4 3 10 19 12 23 12 15 0z m240 0 c-3 -5 -12 -10 -18 -10 -7 0
-6 4 3 10 19 12 23 12 15 0z m240 0 c-3 -5 -12 -10 -18 -10 -7 0 -6 4 3 10 19
12 23 12 15 0z m240 0 c-3 -5 -12 -10 -18 -10 -7 0 -6 4 3 10 19 12 23 12 15
0z m240 0 c-3 -5 -12 -10 -18 -10 -7 0 -6 4 3 10 19 12 23 12 15 0z m240 0
c-3 -5 -12 -10 -18 -10 -7 0 -6 4 3 10 19 12 23 12 15 0z m240 0 c-3 -5 -12
-10 -18 -10 -7 0 -6 4 3 10 19 12 23 12 15 0z m-1640 -10 c-3 -5 -14 -10 -23
-9 -14 0 -13 2 3 9 27 11 27 11 20 0z m480 0 c-3 -5 -14 -10 -23 -9 -14 0 -13
2 3 9 27 11 27 11 20 0z m480 0 c-3 -5 -14 -10 -23 -9 -14 0 -13 2 3 9 27 11
27 11 20 0z m480 0 c-3 -5 -14 -10 -23 -9 -14 0 -13 2 3 9 27 11 27 11 20 0z"/>
<path d="M607 2502 c4 -9 9 -10 19 -2 8 8 19 8 31 2 13 -7 24 -6 35 2 14 10 8
12 -36 12 -39 -1 -52 -4 -49 -14z"/>
<path d="M1087 2502 c4 -9 9 -10 19 -2 8 8 19 8 31 2 13 -7 24 -6 35 2 14 10
8 12 -36 12 -39 -1 -52 -4 -49 -14z"/>
<path d="M1567 2502 c4 -9 9 -10 19 -2 8 8 19 8 31 2 13 -7 24 -6 35 2 14 10
8 12 -36 12 -39 -1 -52 -4 -49 -14z"/>
<path d="M2047 2502 c4 -9 9 -10 19 -2 8 8 19 8 31 2 13 -7 24 -6 35 2 14 10
8 12 -36 12 -39 -1 -52 -4 -49 -14z"/>
<path d="M286 2499 c4 -7 44 0 44 7 0 2 -11 3 -24 2 -14 -1 -23 -5 -20 -9z"/>
<path d="M2495 2300 c-3 -5 -1 -10 4 -10 6 0 11 5 11 10 0 6 -2 10 -4 10 -3 0
-8 -4 -11 -10z"/>
<path d="M96 1755 c4 -8 10 -12 15 -9 11 6 2 24 -11 24 -5 0 -7 -7 -4 -15z"/>
<path d="M2402 168 c-15 -15 -16 -42 -2 -33 6 4 8 10 5 15 -3 4 1 10 7 13 7 2
10 7 7 10 -3 4 -11 1 -17 -5z"/>
<path d="M318 93 c7 -3 16 -2 19 1 4 3 -2 6 -13 5 -11 0 -14 -3 -6 -6z"/>
</g>
</svg>
